<?xml version="1.0" encoding="iso-8859-1"?>
<!-- Generator: Adobe Illustrator 16.0.0, SVG Export Plug-In . SVG Version: 6.00 Build 0)  -->
<!DOCTYPE svg PUBLIC "-//W3C//DTD SVG 1.1//EN" "http://www.w3.org/Graphics/SVG/1.1/DTD/svg11.dtd">
<svg version="1.1" xmlns="http://www.w3.org/2000/svg" xmlns:xlink="http://www.w3.org/1999/xlink" x="0px" y="0px" width="30px"
	 height="30px" viewBox="0 0 30 30" style="enable-background:new 0 0 30 30;" xml:space="preserve">
<g id="Layer_1_1_">
	<polyline style="fill:none;stroke:#000000;stroke-miterlimit:10;" points="26.619,85.417 15.036,97 10,91.964 	"/>
	<polyline style="fill:none;stroke:#000000;stroke-miterlimit:10;" points="0,-122.5 13,-122.5 29,-139.292 17,-150.875 
		0.5,-134.833 0.5,-122 	"/>
	<line style="fill:none;stroke:#000000;stroke-miterlimit:10;" x1="25" y1="-142.833" x2="12" y2="-129.833"/>
	<line style="fill:none;stroke:#000000;stroke-miterlimit:10;" x1="21" y1="-146.833" x2="12" y2="-137.833"/>
	<line style="fill:none;stroke:#000000;stroke-miterlimit:10;" x1="0.391" y1="-134.942" x2="13.25" y2="-122.083"/>
	<line style="fill:none;stroke:#000000;stroke-miterlimit:10;" x1="10.998" y1="-57.331" x2="19.002" y2="-65.335"/>
	<line style="fill:none;stroke:#000000;stroke-miterlimit:10;" x1="0" y1="34.5" x2="13" y2="34.5"/>
	<line style="fill:none;stroke:#000000;stroke-miterlimit:10;" x1="0" y1="-119.5" x2="13" y2="-119.5"/>
	<line style="fill:none;stroke:#000000;stroke-miterlimit:10;" x1="17" y1="-154.5" x2="30" y2="-154.5"/>
	<line style="fill:none;stroke:#000000;stroke-miterlimit:10;" x1="17" y1="-78.5" x2="30" y2="-78.5"/>
	<line style="fill:none;stroke:#000000;stroke-miterlimit:10;" x1="19.002" y1="-57.333" x2="10.999" y2="-65.335"/>
	<circle style="fill:none;stroke:#000000;stroke-miterlimit:10;" cx="24" cy="-70.333" r="5"/>
	<circle style="fill:none;stroke:#000000;stroke-miterlimit:10;" cx="6" cy="-70.333" r="5"/>
	<circle style="fill:none;stroke:#000000;stroke-miterlimit:10;" cx="24" cy="-52.333" r="5"/>
	<circle style="fill:none;stroke:#000000;stroke-miterlimit:10;" cx="6" cy="-52.333" r="5"/>
	<line style="fill:none;stroke:#000000;stroke-miterlimit:10;" x1="1.333" y1="29.334" x2="14" y2="16.667"/>
	<circle style="fill:none;stroke:#000000;stroke-miterlimit:10;" cx="20.5" cy="10.167" r="8.833"/>
	<line style="fill:none;stroke:#000000;stroke-miterlimit:10;" x1="17" y1="-3.5" x2="30" y2="-3.5"/>
	<circle style="fill:none;stroke:#000000;stroke-miterlimit:10;" cx="20.5" cy="10.167" r="5"/>
	<line style="fill:none;stroke:#000000;stroke-miterlimit:10;" x1="0" y1="77.5" x2="13" y2="77.5"/>
	<line style="fill:none;stroke:#000000;stroke-miterlimit:10;" x1="17" y1="152.5" x2="30" y2="152.5"/>
	<line style="fill:none;stroke:#000000;stroke-miterlimit:10;" x1="15" y1="110.5" x2="0" y2="110.5"/>
	<path style="fill:none;stroke:#000000;stroke-miterlimit:10;" d="M21,83c-2.454,0-4.633,1.179-6.001,3
		c-1.367-1.822-3.546-3-5.999-3c-4.142,0-7.5,3.357-7.5,7.5c0,1.688,0.559,3.248,1.5,4.501L4,96l11,11l10-10l1-0.91
		c1.534-1.373,2.5-3.368,2.5-5.59"/>
	<line style="fill:none;stroke:#000000;stroke-miterlimit:10;" x1="0" y1="152.5" x2="13" y2="152.5"/>
	<line style="fill:none;stroke:#000000;stroke-miterlimit:10;" x1="17" y1="185.5" x2="30" y2="185.5"/>
	<line style="fill:none;stroke:#000000;stroke-miterlimit:10;" x1="0" y1="185.5" x2="13" y2="185.5"/>
	<line style="fill:none;stroke:#000000;stroke-miterlimit:10;" x1="1.175" y1="182.7" x2="28.175" y2="155.7"/>
	<ellipse style="fill:none;stroke:#000000;stroke-miterlimit:10;" cx="23.175" cy="155.5" rx="6" ry="0"/>
	<ellipse style="fill:none;stroke:#000000;stroke-miterlimit:10;" cx="28.5" cy="161.2" rx="0" ry="6"/>
	<line style="fill:none;stroke:#000000;stroke-miterlimit:10;" x1="5.258" y1="181.7" x2="2.216" y2="178.658"/>
	<line style="fill:none;stroke:#000000;stroke-miterlimit:10;" x1="13.175" y1="177.616" x2="6.3" y2="170.741"/>
	<line style="fill:none;stroke:#000000;stroke-miterlimit:10;" x1="25.175" y1="173.616" x2="10.3" y2="158.741"/>
	<line style="fill:none;stroke:#000000;stroke-miterlimit:10;" x1="17" y1="223.5" x2="30" y2="223.5"/>
	<line style="fill:none;stroke:#000000;stroke-miterlimit:10;" x1="0" y1="223.5" x2="13" y2="223.5"/>
	<line style="fill:none;stroke:#000000;stroke-miterlimit:10;" x1="28.333" y1="226.667" x2="2" y2="253"/>
	<line style="fill:none;stroke:#000000;stroke-miterlimit:10;" x1="1.5" y1="254" x2="1.5" y2="245"/>
	<line style="fill:none;stroke:#000000;stroke-miterlimit:10;" x1="10" y1="253.5" x2="1" y2="253.5"/>
	<line style="fill:none;stroke:#000000;stroke-miterlimit:10;" x1="28.5" y1="226" x2="28.5" y2="235"/>
	<line style="fill:none;stroke:#000000;stroke-miterlimit:10;" x1="20" y1="226.5" x2="29" y2="226.5"/>
	<circle style="fill:none;stroke:#000000;stroke-miterlimit:10;" cx="7.833" cy="232.167" r="5.5"/>
	<circle style="fill:none;stroke:#000000;stroke-miterlimit:10;" cx="22.833" cy="247.167" r="5.5"/>
	<line style="fill:none;stroke:#000000;stroke-miterlimit:10;" x1="28.666" y1="289.334" x2="2" y2="316"/>
	<line style="fill:none;stroke:#000000;stroke-miterlimit:10;" x1="1.5" y1="317" x2="1.5" y2="308"/>
	<line style="fill:none;stroke:#000000;stroke-miterlimit:10;" x1="10" y1="316.5" x2="1" y2="316.5"/>
	<rect x="15.5" y="289.5" style="fill:none;stroke:#000000;stroke-miterlimit:10;" width="13" height="13"/>
	<line style="fill:none;stroke:#000000;stroke-miterlimit:10;" x1="16.333" y1="289.667" x2="28.833" y2="302.167"/>
	<rect x="9.5" y="337.5" style="fill:none;stroke:#000000;stroke-miterlimit:10;" width="18" height="18"/>
	<circle style="fill:none;stroke:#000000;stroke-miterlimit:10;" cx="10.167" cy="355.333" r="9"/>
	<line style="fill:none;stroke:#000000;stroke-miterlimit:10;" x1="10.166" y1="355.333" x2="16.499" y2="349"/>
	<line style="fill:none;stroke:#000000;stroke-miterlimit:10;" x1="1.5" y1="405" x2="1.5" y2="433"/>
	<line style="fill:none;stroke:#000000;stroke-miterlimit:10;" x1="1" y1="432.5" x2="29" y2="432.5"/>
	<line style="fill:none;stroke:#000000;stroke-miterlimit:10;" x1="4.174" y1="429.697" x2="28.174" y2="405.697"/>
	<path style="fill:none;stroke:#000000;stroke-miterlimit:10;" d="M22.174,417.697c0,3.313-2.684,6-6,6c-3.311,0-6-2.687-6-6
		s2.689-6,6-6C19.49,411.697,22.174,414.384,22.174,417.697z"/>
	<line style="fill:none;stroke:#000000;stroke-miterlimit:10;" x1="2.25" y1="483.501" x2="28.25" y2="457.501"/>
	<line style="fill:none;stroke:#000000;stroke-miterlimit:10;" x1="28" y1="471.5" x2="22" y2="471.5"/>
	<line style="fill:none;stroke:#000000;stroke-miterlimit:10;" x1="28" y1="476.5" x2="16" y2="476.5"/>
	<line style="fill:none;stroke:#000000;stroke-miterlimit:10;" x1="28" y1="481.5" x2="11" y2="481.5"/>
	<circle style="fill:none;stroke:#000000;stroke-miterlimit:10;" cx="8.25" cy="464.5" r="5"/>
	<line style="fill:none;stroke:#000000;stroke-miterlimit:10;" x1="0" y1="530.5" x2="15" y2="530.5"/>
	<polygon style="fill:none;stroke:#000000;stroke-miterlimit:10;" points="6.406,504.331 2.154,508.583 2,508.718 15,521.664 
		28,508.664 26.267,506.858 23.702,504.295 	"/>
	<line style="fill:none;stroke:#000000;stroke-miterlimit:10;" x1="2" y1="508.5" x2="28" y2="508.5"/>
	<polyline style="fill:none;stroke:#000000;stroke-miterlimit:10;" points="7,504 11.5,508.5 15.5,504.5 19.5,508.5 	"/>
	<circle style="fill:none;stroke:#000000;stroke-miterlimit:10;" cx="24" cy="556.167" r="5"/>
	<circle style="fill:none;stroke:#000000;stroke-miterlimit:10;" cx="6" cy="574.167" r="5"/>
	<line style="fill:none;stroke:#000000;stroke-miterlimit:10;" x1="15.5" y1="559" x2="15.5" y2="572"/>
	<line style="fill:none;stroke:#000000;stroke-miterlimit:10;" x1="9" y1="565.5" x2="22" y2="565.5"/>
	<line style="fill:none;stroke:#000000;stroke-miterlimit:10;" x1="1" y1="619" x2="29" y2="591"/>
	<rect x="5.5" y="596.5" style="fill:none;stroke:#000000;stroke-miterlimit:10;" width="18" height="18"/>
	<line style="fill:none;stroke:#000000;stroke-miterlimit:10;" x1="1" y1="591" x2="29" y2="619"/>
</g>
<g id="Layer_1">
</g>
</svg>
