<?xml version="1.0" encoding="iso-8859-1"?>
<!-- Generator: Adobe Illustrator 16.0.0, SVG Export Plug-In . SVG Version: 6.00 Build 0)  -->
<!DOCTYPE svg PUBLIC "-//W3C//DTD SVG 1.1//EN" "http://www.w3.org/Graphics/SVG/1.1/DTD/svg11.dtd">
<svg version="1.1" xmlns="http://www.w3.org/2000/svg" xmlns:xlink="http://www.w3.org/1999/xlink" x="0px" y="0px" width="30px"
	 height="30px" viewBox="0 0 30 30" style="enable-background:new 0 0 30 30;" xml:space="preserve">
<g id="Layer_1_1_">
	<polyline style="fill:none;stroke:#000000;stroke-miterlimit:10;" points="26.619,-642.583 15.036,-631 10,-636.036 	"/>
	<polyline style="fill:none;stroke:#000000;stroke-miterlimit:10;" points="0,-850.5 13,-850.5 29,-867.292 17,-878.875 
		0.5,-862.833 0.5,-850 	"/>
	<line style="fill:none;stroke:#000000;stroke-miterlimit:10;" x1="25" y1="-870.833" x2="12" y2="-857.833"/>
	<line style="fill:none;stroke:#000000;stroke-miterlimit:10;" x1="21" y1="-874.833" x2="12" y2="-865.833"/>
	<line style="fill:none;stroke:#000000;stroke-miterlimit:10;" x1="0.391" y1="-862.942" x2="13.25" y2="-850.083"/>
	<line style="fill:none;stroke:#000000;stroke-miterlimit:10;" x1="10.998" y1="-785.331" x2="19.002" y2="-793.335"/>
	<line style="fill:none;stroke:#000000;stroke-miterlimit:10;" x1="0" y1="-693.5" x2="13" y2="-693.5"/>
	<line style="fill:none;stroke:#000000;stroke-miterlimit:10;" x1="0" y1="-847.5" x2="13" y2="-847.5"/>
	<line style="fill:none;stroke:#000000;stroke-miterlimit:10;" x1="17" y1="-882.5" x2="30" y2="-882.5"/>
	<line style="fill:none;stroke:#000000;stroke-miterlimit:10;" x1="17" y1="-806.5" x2="30" y2="-806.5"/>
	<line style="fill:none;stroke:#000000;stroke-miterlimit:10;" x1="19.002" y1="-785.333" x2="10.999" y2="-793.335"/>
	<circle style="fill:none;stroke:#000000;stroke-miterlimit:10;" cx="24" cy="-798.333" r="5"/>
	<circle style="fill:none;stroke:#000000;stroke-miterlimit:10;" cx="6" cy="-798.333" r="5"/>
	<circle style="fill:none;stroke:#000000;stroke-miterlimit:10;" cx="24" cy="-780.333" r="5"/>
	<circle style="fill:none;stroke:#000000;stroke-miterlimit:10;" cx="6" cy="-780.333" r="5"/>
	<line style="fill:none;stroke:#000000;stroke-miterlimit:10;" x1="1.333" y1="-698.666" x2="14" y2="-711.333"/>
	<circle style="fill:none;stroke:#000000;stroke-miterlimit:10;" cx="20.5" cy="-717.833" r="8.833"/>
	<line style="fill:none;stroke:#000000;stroke-miterlimit:10;" x1="17" y1="-731.5" x2="30" y2="-731.5"/>
	<circle style="fill:none;stroke:#000000;stroke-miterlimit:10;" cx="20.5" cy="-717.833" r="5"/>
	<line style="fill:none;stroke:#000000;stroke-miterlimit:10;" x1="0" y1="-650.5" x2="13" y2="-650.5"/>
	<line style="fill:none;stroke:#000000;stroke-miterlimit:10;" x1="17" y1="-575.5" x2="30" y2="-575.5"/>
	<line style="fill:none;stroke:#000000;stroke-miterlimit:10;" x1="15" y1="-617.5" x2="0" y2="-617.5"/>
	<path style="fill:none;stroke:#000000;stroke-miterlimit:10;" d="M21-645c-2.454,0-4.633,1.179-6.001,3
		c-1.367-1.822-3.546-3-5.999-3c-4.142,0-7.5,3.357-7.5,7.5c0,1.688,0.559,3.248,1.5,4.501L4-632l11,11l10-10l1-0.91
		c1.534-1.373,2.5-3.368,2.5-5.59"/>
	<line style="fill:none;stroke:#000000;stroke-miterlimit:10;" x1="0" y1="-575.5" x2="13" y2="-575.5"/>
	<line style="fill:none;stroke:#000000;stroke-miterlimit:10;" x1="17" y1="-542.5" x2="30" y2="-542.5"/>
	<line style="fill:none;stroke:#000000;stroke-miterlimit:10;" x1="0" y1="-542.5" x2="13" y2="-542.5"/>
	<line style="fill:none;stroke:#000000;stroke-miterlimit:10;" x1="1.175" y1="-545.3" x2="28.175" y2="-572.3"/>
	<ellipse style="fill:none;stroke:#000000;stroke-miterlimit:10;" cx="23.175" cy="-572.5" rx="6" ry="0"/>
	<ellipse style="fill:none;stroke:#000000;stroke-miterlimit:10;" cx="28.5" cy="-566.8" rx="0" ry="6"/>
	<line style="fill:none;stroke:#000000;stroke-miterlimit:10;" x1="5.258" y1="-546.3" x2="2.216" y2="-549.342"/>
	<line style="fill:none;stroke:#000000;stroke-miterlimit:10;" x1="13.175" y1="-550.384" x2="6.3" y2="-557.259"/>
	<line style="fill:none;stroke:#000000;stroke-miterlimit:10;" x1="25.175" y1="-554.384" x2="10.3" y2="-569.259"/>
	<line style="fill:none;stroke:#000000;stroke-miterlimit:10;" x1="17" y1="-504.5" x2="30" y2="-504.5"/>
	<line style="fill:none;stroke:#000000;stroke-miterlimit:10;" x1="0" y1="-504.5" x2="13" y2="-504.5"/>
	<line style="fill:none;stroke:#000000;stroke-miterlimit:10;" x1="28.333" y1="-501.333" x2="2" y2="-475"/>
	<line style="fill:none;stroke:#000000;stroke-miterlimit:10;" x1="1.5" y1="-474" x2="1.5" y2="-483"/>
	<line style="fill:none;stroke:#000000;stroke-miterlimit:10;" x1="10" y1="-474.5" x2="1" y2="-474.5"/>
	<line style="fill:none;stroke:#000000;stroke-miterlimit:10;" x1="28.5" y1="-502" x2="28.5" y2="-493"/>
	<line style="fill:none;stroke:#000000;stroke-miterlimit:10;" x1="20" y1="-501.5" x2="29" y2="-501.5"/>
	<circle style="fill:none;stroke:#000000;stroke-miterlimit:10;" cx="7.833" cy="-495.833" r="5.5"/>
	<circle style="fill:none;stroke:#000000;stroke-miterlimit:10;" cx="22.833" cy="-480.833" r="5.5"/>
	<line style="fill:none;stroke:#000000;stroke-miterlimit:10;" x1="28.666" y1="-438.666" x2="2" y2="-412"/>
	<line style="fill:none;stroke:#000000;stroke-miterlimit:10;" x1="1.5" y1="-411" x2="1.5" y2="-420"/>
	<line style="fill:none;stroke:#000000;stroke-miterlimit:10;" x1="10" y1="-411.5" x2="1" y2="-411.5"/>
	<rect x="15.5" y="-438.5" style="fill:none;stroke:#000000;stroke-miterlimit:10;" width="13" height="13"/>
	<line style="fill:none;stroke:#000000;stroke-miterlimit:10;" x1="16.333" y1="-438.333" x2="28.833" y2="-425.833"/>
	<rect x="9.5" y="-390.5" style="fill:none;stroke:#000000;stroke-miterlimit:10;" width="18" height="18"/>
	<circle style="fill:none;stroke:#000000;stroke-miterlimit:10;" cx="10.167" cy="-372.667" r="9"/>
	<line style="fill:none;stroke:#000000;stroke-miterlimit:10;" x1="10.166" y1="-372.667" x2="16.499" y2="-379"/>
	<line style="fill:none;stroke:#000000;stroke-miterlimit:10;" x1="1.5" y1="-323" x2="1.5" y2="-295"/>
	<line style="fill:none;stroke:#000000;stroke-miterlimit:10;" x1="1" y1="-295.5" x2="29" y2="-295.5"/>
	<line style="fill:none;stroke:#000000;stroke-miterlimit:10;" x1="4.174" y1="-298.303" x2="28.174" y2="-322.303"/>
	<path style="fill:none;stroke:#000000;stroke-miterlimit:10;" d="M22.174-310.303c0,3.313-2.684,6-6,6c-3.311,0-6-2.687-6-6
		s2.689-6,6-6C19.49-316.303,22.174-313.616,22.174-310.303z"/>
	<line style="fill:none;stroke:#000000;stroke-miterlimit:10;" x1="2.25" y1="-244.499" x2="28.25" y2="-270.499"/>
	<line style="fill:none;stroke:#000000;stroke-miterlimit:10;" x1="28" y1="-256.5" x2="22" y2="-256.5"/>
	<line style="fill:none;stroke:#000000;stroke-miterlimit:10;" x1="28" y1="-251.5" x2="16" y2="-251.5"/>
	<line style="fill:none;stroke:#000000;stroke-miterlimit:10;" x1="28" y1="-246.5" x2="11" y2="-246.5"/>
	<circle style="fill:none;stroke:#000000;stroke-miterlimit:10;" cx="8.25" cy="-263.5" r="5"/>
	<line style="fill:none;stroke:#000000;stroke-miterlimit:10;" x1="0" y1="-197.5" x2="15" y2="-197.5"/>
	<polygon style="fill:none;stroke:#000000;stroke-miterlimit:10;" points="6.406,-223.669 2.154,-219.417 2,-219.282 15,-206.336 
		28,-219.336 26.267,-221.142 23.702,-223.705 	"/>
	<line style="fill:none;stroke:#000000;stroke-miterlimit:10;" x1="2" y1="-219.5" x2="28" y2="-219.5"/>
	<polyline style="fill:none;stroke:#000000;stroke-miterlimit:10;" points="7,-224 11.5,-219.5 15.5,-223.5 19.5,-219.5 	"/>
	<circle style="fill:none;stroke:#000000;stroke-miterlimit:10;" cx="24" cy="-171.833" r="5"/>
	<circle style="fill:none;stroke:#000000;stroke-miterlimit:10;" cx="6" cy="-153.833" r="5"/>
	<line style="fill:none;stroke:#000000;stroke-miterlimit:10;" x1="15.5" y1="-169" x2="15.5" y2="-156"/>
	<line style="fill:none;stroke:#000000;stroke-miterlimit:10;" x1="9" y1="-162.5" x2="22" y2="-162.5"/>
	<line style="fill:none;stroke:#000000;stroke-miterlimit:10;" x1="1" y1="-109" x2="29" y2="-137"/>
	<rect x="5.5" y="-131.5" style="fill:none;stroke:#000000;stroke-miterlimit:10;" width="18" height="18"/>
	<line style="fill:none;stroke:#000000;stroke-miterlimit:10;" x1="1" y1="-137" x2="29" y2="-109"/>
</g>
<g id="Layer_1">
</g>
</svg>
