<?xml version="1.0" encoding="iso-8859-1"?>
<!-- Generator: Adobe Illustrator 16.0.0, SVG Export Plug-In . SVG Version: 6.00 Build 0)  -->
<!DOCTYPE svg PUBLIC "-//W3C//DTD SVG 1.1//EN" "http://www.w3.org/Graphics/SVG/1.1/DTD/svg11.dtd">
<svg version="1.1" xmlns="http://www.w3.org/2000/svg" xmlns:xlink="http://www.w3.org/1999/xlink" x="0px" y="0px" width="30px"
	 height="30px" viewBox="0 0 30 30" style="enable-background:new 0 0 30 30;" xml:space="preserve">
<g id="Layer_1_1_">
	<polyline style="fill:none;stroke:#000000;stroke-miterlimit:10;" points="26.619,237.417 15.036,249 10,243.964 	"/>
	<polyline style="fill:none;stroke:#000000;stroke-miterlimit:10;" points="0,29.5 13,29.5 29,12.708 17,1.125 0.5,17.167 0.5,30 	
		"/>
	<line style="fill:none;stroke:#000000;stroke-miterlimit:10;" x1="25" y1="9.167" x2="12" y2="22.167"/>
	<line style="fill:none;stroke:#000000;stroke-miterlimit:10;" x1="21" y1="5.167" x2="12" y2="14.167"/>
	<line style="fill:none;stroke:#000000;stroke-miterlimit:10;" x1="0.391" y1="17.058" x2="13.25" y2="29.917"/>
	<line style="fill:none;stroke:#000000;stroke-miterlimit:10;" x1="10.998" y1="94.669" x2="19.002" y2="86.665"/>
	<line style="fill:none;stroke:#000000;stroke-miterlimit:10;" x1="0" y1="186.5" x2="13" y2="186.5"/>
	<line style="fill:none;stroke:#000000;stroke-miterlimit:10;" x1="0" y1="32.5" x2="13" y2="32.5"/>
	<line style="fill:none;stroke:#000000;stroke-miterlimit:10;" x1="17" y1="-2.5" x2="30" y2="-2.5"/>
	<line style="fill:none;stroke:#000000;stroke-miterlimit:10;" x1="17" y1="73.5" x2="30" y2="73.5"/>
	<line style="fill:none;stroke:#000000;stroke-miterlimit:10;" x1="19.002" y1="94.667" x2="10.999" y2="86.665"/>
	<circle style="fill:none;stroke:#000000;stroke-miterlimit:10;" cx="24" cy="81.667" r="5"/>
	<circle style="fill:none;stroke:#000000;stroke-miterlimit:10;" cx="6" cy="81.667" r="5"/>
	<circle style="fill:none;stroke:#000000;stroke-miterlimit:10;" cx="24" cy="99.667" r="5"/>
	<circle style="fill:none;stroke:#000000;stroke-miterlimit:10;" cx="6" cy="99.667" r="5"/>
	<line style="fill:none;stroke:#000000;stroke-miterlimit:10;" x1="1.333" y1="181.334" x2="14" y2="168.667"/>
	<circle style="fill:none;stroke:#000000;stroke-miterlimit:10;" cx="20.5" cy="162.167" r="8.833"/>
	<line style="fill:none;stroke:#000000;stroke-miterlimit:10;" x1="17" y1="148.5" x2="30" y2="148.5"/>
	<circle style="fill:none;stroke:#000000;stroke-miterlimit:10;" cx="20.5" cy="162.167" r="5"/>
	<line style="fill:none;stroke:#000000;stroke-miterlimit:10;" x1="0" y1="229.5" x2="13" y2="229.5"/>
	<line style="fill:none;stroke:#000000;stroke-miterlimit:10;" x1="17" y1="304.5" x2="30" y2="304.5"/>
	<line style="fill:none;stroke:#000000;stroke-miterlimit:10;" x1="15" y1="262.5" x2="0" y2="262.5"/>
	<path style="fill:none;stroke:#000000;stroke-miterlimit:10;" d="M21,235c-2.454,0-4.633,1.179-6.001,3
		c-1.367-1.822-3.546-3-5.999-3c-4.142,0-7.5,3.357-7.5,7.5c0,1.688,0.559,3.248,1.5,4.501L4,248l11,11l10-10l1-0.91
		c1.534-1.373,2.5-3.368,2.5-5.59"/>
	<line style="fill:none;stroke:#000000;stroke-miterlimit:10;" x1="0" y1="304.5" x2="13" y2="304.5"/>
	<line style="fill:none;stroke:#000000;stroke-miterlimit:10;" x1="17" y1="337.5" x2="30" y2="337.5"/>
	<line style="fill:none;stroke:#000000;stroke-miterlimit:10;" x1="0" y1="337.5" x2="13" y2="337.5"/>
	<line style="fill:none;stroke:#000000;stroke-miterlimit:10;" x1="1.175" y1="334.7" x2="28.175" y2="307.7"/>
	<ellipse style="fill:none;stroke:#000000;stroke-miterlimit:10;" cx="23.175" cy="307.5" rx="6" ry="0"/>
	<ellipse style="fill:none;stroke:#000000;stroke-miterlimit:10;" cx="28.5" cy="313.2" rx="0" ry="6"/>
	<line style="fill:none;stroke:#000000;stroke-miterlimit:10;" x1="5.258" y1="333.7" x2="2.216" y2="330.658"/>
	<line style="fill:none;stroke:#000000;stroke-miterlimit:10;" x1="13.175" y1="329.616" x2="6.3" y2="322.741"/>
	<line style="fill:none;stroke:#000000;stroke-miterlimit:10;" x1="25.175" y1="325.616" x2="10.3" y2="310.741"/>
	<line style="fill:none;stroke:#000000;stroke-miterlimit:10;" x1="17" y1="375.5" x2="30" y2="375.5"/>
	<line style="fill:none;stroke:#000000;stroke-miterlimit:10;" x1="0" y1="375.5" x2="13" y2="375.5"/>
	<line style="fill:none;stroke:#000000;stroke-miterlimit:10;" x1="28.333" y1="378.667" x2="2" y2="405"/>
	<line style="fill:none;stroke:#000000;stroke-miterlimit:10;" x1="1.5" y1="406" x2="1.5" y2="397"/>
	<line style="fill:none;stroke:#000000;stroke-miterlimit:10;" x1="10" y1="405.5" x2="1" y2="405.5"/>
	<line style="fill:none;stroke:#000000;stroke-miterlimit:10;" x1="28.5" y1="378" x2="28.5" y2="387"/>
	<line style="fill:none;stroke:#000000;stroke-miterlimit:10;" x1="20" y1="378.5" x2="29" y2="378.5"/>
	<circle style="fill:none;stroke:#000000;stroke-miterlimit:10;" cx="7.833" cy="384.167" r="5.5"/>
	<circle style="fill:none;stroke:#000000;stroke-miterlimit:10;" cx="22.833" cy="399.167" r="5.5"/>
	<line style="fill:none;stroke:#000000;stroke-miterlimit:10;" x1="28.666" y1="441.334" x2="2" y2="468"/>
	<line style="fill:none;stroke:#000000;stroke-miterlimit:10;" x1="1.5" y1="469" x2="1.5" y2="460"/>
	<line style="fill:none;stroke:#000000;stroke-miterlimit:10;" x1="10" y1="468.5" x2="1" y2="468.5"/>
	<rect x="15.5" y="441.5" style="fill:none;stroke:#000000;stroke-miterlimit:10;" width="13" height="13"/>
	<line style="fill:none;stroke:#000000;stroke-miterlimit:10;" x1="16.333" y1="441.667" x2="28.833" y2="454.167"/>
	<rect x="9.5" y="489.5" style="fill:none;stroke:#000000;stroke-miterlimit:10;" width="18" height="18"/>
	<circle style="fill:none;stroke:#000000;stroke-miterlimit:10;" cx="10.167" cy="507.333" r="9"/>
	<line style="fill:none;stroke:#000000;stroke-miterlimit:10;" x1="10.166" y1="507.333" x2="16.499" y2="501"/>
	<line style="fill:none;stroke:#000000;stroke-miterlimit:10;" x1="1.5" y1="557" x2="1.5" y2="585"/>
	<line style="fill:none;stroke:#000000;stroke-miterlimit:10;" x1="1" y1="584.5" x2="29" y2="584.5"/>
	<line style="fill:none;stroke:#000000;stroke-miterlimit:10;" x1="4.174" y1="581.697" x2="28.174" y2="557.697"/>
	<path style="fill:none;stroke:#000000;stroke-miterlimit:10;" d="M22.174,569.697c0,3.313-2.684,6-6,6c-3.311,0-6-2.687-6-6
		s2.689-6,6-6C19.49,563.697,22.174,566.384,22.174,569.697z"/>
	<line style="fill:none;stroke:#000000;stroke-miterlimit:10;" x1="2.25" y1="635.501" x2="28.25" y2="609.501"/>
	<line style="fill:none;stroke:#000000;stroke-miterlimit:10;" x1="28" y1="623.5" x2="22" y2="623.5"/>
	<line style="fill:none;stroke:#000000;stroke-miterlimit:10;" x1="28" y1="628.5" x2="16" y2="628.5"/>
	<line style="fill:none;stroke:#000000;stroke-miterlimit:10;" x1="28" y1="633.5" x2="11" y2="633.5"/>
	<circle style="fill:none;stroke:#000000;stroke-miterlimit:10;" cx="8.25" cy="616.5" r="5"/>
	<line style="fill:none;stroke:#000000;stroke-miterlimit:10;" x1="0" y1="682.5" x2="15" y2="682.5"/>
	<polygon style="fill:none;stroke:#000000;stroke-miterlimit:10;" points="6.406,656.331 2.154,660.583 2,660.718 15,673.664 
		28,660.664 26.267,658.858 23.702,656.295 	"/>
	<line style="fill:none;stroke:#000000;stroke-miterlimit:10;" x1="2" y1="660.5" x2="28" y2="660.5"/>
	<polyline style="fill:none;stroke:#000000;stroke-miterlimit:10;" points="7,656 11.5,660.5 15.5,656.5 19.5,660.5 	"/>
	<circle style="fill:none;stroke:#000000;stroke-miterlimit:10;" cx="24" cy="708.167" r="5"/>
	<circle style="fill:none;stroke:#000000;stroke-miterlimit:10;" cx="6" cy="726.167" r="5"/>
	<line style="fill:none;stroke:#000000;stroke-miterlimit:10;" x1="15.5" y1="711" x2="15.5" y2="724"/>
	<line style="fill:none;stroke:#000000;stroke-miterlimit:10;" x1="9" y1="717.5" x2="22" y2="717.5"/>
	<line style="fill:none;stroke:#000000;stroke-miterlimit:10;" x1="1" y1="771" x2="29" y2="743"/>
	<rect x="5.5" y="748.5" style="fill:none;stroke:#000000;stroke-miterlimit:10;" width="18" height="18"/>
	<line style="fill:none;stroke:#000000;stroke-miterlimit:10;" x1="1" y1="743" x2="29" y2="771"/>
</g>
<g id="Layer_1">
</g>
</svg>
