<?xml version="1.0" encoding="iso-8859-1"?>
<!-- Generator: Adobe Illustrator 16.0.0, SVG Export Plug-In . SVG Version: 6.00 Build 0)  -->
<!DOCTYPE svg PUBLIC "-//W3C//DTD SVG 1.1//EN" "http://www.w3.org/Graphics/SVG/1.1/DTD/svg11.dtd">
<svg version="1.1" xmlns="http://www.w3.org/2000/svg" xmlns:xlink="http://www.w3.org/1999/xlink" x="0px" y="0px" width="30px"
	 height="30px" viewBox="0 0 30 30" style="enable-background:new 0 0 30 30;" xml:space="preserve">
<g id="Layer_1_1_">
	<polyline style="fill:none;stroke:#000000;stroke-miterlimit:10;" points="26.619,-978.583 15.036,-967 10,-972.036 	"/>
	<polyline style="fill:none;stroke:#000000;stroke-miterlimit:10;" points="0,-1186.5 13,-1186.5 29,-1203.292 17,-1214.875 
		0.5,-1198.833 0.5,-1186 	"/>
	<line style="fill:none;stroke:#000000;stroke-miterlimit:10;" x1="25" y1="-1206.833" x2="12" y2="-1193.833"/>
	<line style="fill:none;stroke:#000000;stroke-miterlimit:10;" x1="21" y1="-1210.833" x2="12" y2="-1201.833"/>
	<line style="fill:none;stroke:#000000;stroke-miterlimit:10;" x1="0.391" y1="-1198.942" x2="13.25" y2="-1186.083"/>
	<line style="fill:none;stroke:#000000;stroke-miterlimit:10;" x1="10.998" y1="-1121.331" x2="19.002" y2="-1129.335"/>
	<line style="fill:none;stroke:#000000;stroke-miterlimit:10;" x1="0" y1="-1029.5" x2="13" y2="-1029.5"/>
	<line style="fill:none;stroke:#000000;stroke-miterlimit:10;" x1="0" y1="-1183.5" x2="13" y2="-1183.5"/>
	<line style="fill:none;stroke:#000000;stroke-miterlimit:10;" x1="17" y1="-1218.5" x2="30" y2="-1218.5"/>
	<line style="fill:none;stroke:#000000;stroke-miterlimit:10;" x1="17" y1="-1142.5" x2="30" y2="-1142.5"/>
	<line style="fill:none;stroke:#000000;stroke-miterlimit:10;" x1="19.002" y1="-1121.333" x2="10.999" y2="-1129.335"/>
	<circle style="fill:none;stroke:#000000;stroke-miterlimit:10;" cx="24" cy="-1134.333" r="5"/>
	<circle style="fill:none;stroke:#000000;stroke-miterlimit:10;" cx="6" cy="-1134.333" r="5"/>
	<circle style="fill:none;stroke:#000000;stroke-miterlimit:10;" cx="24" cy="-1116.333" r="5"/>
	<circle style="fill:none;stroke:#000000;stroke-miterlimit:10;" cx="6" cy="-1116.333" r="5"/>
	<line style="fill:none;stroke:#000000;stroke-miterlimit:10;" x1="1.333" y1="-1034.666" x2="14" y2="-1047.333"/>
	<circle style="fill:none;stroke:#000000;stroke-miterlimit:10;" cx="20.5" cy="-1053.833" r="8.833"/>
	<line style="fill:none;stroke:#000000;stroke-miterlimit:10;" x1="17" y1="-1067.5" x2="30" y2="-1067.5"/>
	<circle style="fill:none;stroke:#000000;stroke-miterlimit:10;" cx="20.5" cy="-1053.833" r="5"/>
	<line style="fill:none;stroke:#000000;stroke-miterlimit:10;" x1="0" y1="-986.5" x2="13" y2="-986.5"/>
	<line style="fill:none;stroke:#000000;stroke-miterlimit:10;" x1="17" y1="-911.5" x2="30" y2="-911.5"/>
	<line style="fill:none;stroke:#000000;stroke-miterlimit:10;" x1="15" y1="-953.5" x2="0" y2="-953.5"/>
	<path style="fill:none;stroke:#000000;stroke-miterlimit:10;" d="M21-981c-2.454,0-4.633,1.179-6.001,3
		c-1.367-1.822-3.546-3-5.999-3c-4.142,0-7.5,3.357-7.5,7.5c0,1.688,0.559,3.248,1.5,4.501L4-968l11,11l10-10l1-0.91
		c1.534-1.373,2.5-3.368,2.5-5.59"/>
	<line style="fill:none;stroke:#000000;stroke-miterlimit:10;" x1="0" y1="-911.5" x2="13" y2="-911.5"/>
	<line style="fill:none;stroke:#000000;stroke-miterlimit:10;" x1="17" y1="-878.5" x2="30" y2="-878.5"/>
	<line style="fill:none;stroke:#000000;stroke-miterlimit:10;" x1="0" y1="-878.5" x2="13" y2="-878.5"/>
	<line style="fill:none;stroke:#000000;stroke-miterlimit:10;" x1="1.175" y1="-881.3" x2="28.175" y2="-908.3"/>
	<ellipse style="fill:none;stroke:#000000;stroke-miterlimit:10;" cx="23.175" cy="-908.5" rx="6" ry="0"/>
	<ellipse style="fill:none;stroke:#000000;stroke-miterlimit:10;" cx="28.5" cy="-902.8" rx="0" ry="6"/>
	<line style="fill:none;stroke:#000000;stroke-miterlimit:10;" x1="5.258" y1="-882.3" x2="2.216" y2="-885.342"/>
	<line style="fill:none;stroke:#000000;stroke-miterlimit:10;" x1="13.175" y1="-886.384" x2="6.3" y2="-893.259"/>
	<line style="fill:none;stroke:#000000;stroke-miterlimit:10;" x1="25.175" y1="-890.384" x2="10.3" y2="-905.259"/>
	<line style="fill:none;stroke:#000000;stroke-miterlimit:10;" x1="17" y1="-840.5" x2="30" y2="-840.5"/>
	<line style="fill:none;stroke:#000000;stroke-miterlimit:10;" x1="0" y1="-840.5" x2="13" y2="-840.5"/>
	<line style="fill:none;stroke:#000000;stroke-miterlimit:10;" x1="28.333" y1="-837.333" x2="2" y2="-811"/>
	<line style="fill:none;stroke:#000000;stroke-miterlimit:10;" x1="1.5" y1="-810" x2="1.5" y2="-819"/>
	<line style="fill:none;stroke:#000000;stroke-miterlimit:10;" x1="10" y1="-810.5" x2="1" y2="-810.5"/>
	<line style="fill:none;stroke:#000000;stroke-miterlimit:10;" x1="28.5" y1="-838" x2="28.5" y2="-829"/>
	<line style="fill:none;stroke:#000000;stroke-miterlimit:10;" x1="20" y1="-837.5" x2="29" y2="-837.5"/>
	<circle style="fill:none;stroke:#000000;stroke-miterlimit:10;" cx="7.833" cy="-831.833" r="5.5"/>
	<circle style="fill:none;stroke:#000000;stroke-miterlimit:10;" cx="22.833" cy="-816.833" r="5.5"/>
	<line style="fill:none;stroke:#000000;stroke-miterlimit:10;" x1="28.666" y1="-774.666" x2="2" y2="-748"/>
	<line style="fill:none;stroke:#000000;stroke-miterlimit:10;" x1="1.5" y1="-747" x2="1.5" y2="-756"/>
	<line style="fill:none;stroke:#000000;stroke-miterlimit:10;" x1="10" y1="-747.5" x2="1" y2="-747.5"/>
	<rect x="15.5" y="-774.5" style="fill:none;stroke:#000000;stroke-miterlimit:10;" width="13" height="13"/>
	<line style="fill:none;stroke:#000000;stroke-miterlimit:10;" x1="16.333" y1="-774.333" x2="28.833" y2="-761.833"/>
	<rect x="9.5" y="-726.5" style="fill:none;stroke:#000000;stroke-miterlimit:10;" width="18" height="18"/>
	<circle style="fill:none;stroke:#000000;stroke-miterlimit:10;" cx="10.167" cy="-708.667" r="9"/>
	<line style="fill:none;stroke:#000000;stroke-miterlimit:10;" x1="10.166" y1="-708.667" x2="16.499" y2="-715"/>
	<line style="fill:none;stroke:#000000;stroke-miterlimit:10;" x1="1.5" y1="-659" x2="1.5" y2="-631"/>
	<line style="fill:none;stroke:#000000;stroke-miterlimit:10;" x1="1" y1="-631.5" x2="29" y2="-631.5"/>
	<line style="fill:none;stroke:#000000;stroke-miterlimit:10;" x1="4.174" y1="-634.303" x2="28.174" y2="-658.303"/>
	<path style="fill:none;stroke:#000000;stroke-miterlimit:10;" d="M22.174-646.303c0,3.313-2.684,6-6,6c-3.311,0-6-2.687-6-6
		s2.689-6,6-6C19.49-652.303,22.174-649.616,22.174-646.303z"/>
	<line style="fill:none;stroke:#000000;stroke-miterlimit:10;" x1="2.25" y1="-580.499" x2="28.25" y2="-606.499"/>
	<line style="fill:none;stroke:#000000;stroke-miterlimit:10;" x1="28" y1="-592.5" x2="22" y2="-592.5"/>
	<line style="fill:none;stroke:#000000;stroke-miterlimit:10;" x1="28" y1="-587.5" x2="16" y2="-587.5"/>
	<line style="fill:none;stroke:#000000;stroke-miterlimit:10;" x1="28" y1="-582.5" x2="11" y2="-582.5"/>
	<circle style="fill:none;stroke:#000000;stroke-miterlimit:10;" cx="8.25" cy="-599.5" r="5"/>
	<line style="fill:none;stroke:#000000;stroke-miterlimit:10;" x1="0" y1="-533.5" x2="15" y2="-533.5"/>
	<polygon style="fill:none;stroke:#000000;stroke-miterlimit:10;" points="6.406,-559.669 2.154,-555.417 2,-555.282 15,-542.336 
		28,-555.336 26.267,-557.142 23.702,-559.705 	"/>
	<line style="fill:none;stroke:#000000;stroke-miterlimit:10;" x1="2" y1="-555.5" x2="28" y2="-555.5"/>
	<polyline style="fill:none;stroke:#000000;stroke-miterlimit:10;" points="7,-560 11.5,-555.5 15.5,-559.5 19.5,-555.5 	"/>
	<circle style="fill:none;stroke:#000000;stroke-miterlimit:10;" cx="24" cy="-507.833" r="5"/>
	<circle style="fill:none;stroke:#000000;stroke-miterlimit:10;" cx="6" cy="-489.833" r="5"/>
	<line style="fill:none;stroke:#000000;stroke-miterlimit:10;" x1="15.5" y1="-505" x2="15.5" y2="-492"/>
	<line style="fill:none;stroke:#000000;stroke-miterlimit:10;" x1="9" y1="-498.5" x2="22" y2="-498.5"/>
	<line style="fill:none;stroke:#000000;stroke-miterlimit:10;" x1="1" y1="-445" x2="29" y2="-473"/>
	<rect x="5.5" y="-467.5" style="fill:none;stroke:#000000;stroke-miterlimit:10;" width="18" height="18"/>
	<line style="fill:none;stroke:#000000;stroke-miterlimit:10;" x1="1" y1="-473" x2="29" y2="-445"/>
</g>
<g id="Layer_1">
</g>
</svg>
