<?xml version="1.0" encoding="iso-8859-1"?>
<!-- Generator: Adobe Illustrator 16.0.0, SVG Export Plug-In . SVG Version: 6.00 Build 0)  -->
<!DOCTYPE svg PUBLIC "-//W3C//DTD SVG 1.1//EN" "http://www.w3.org/Graphics/SVG/1.1/DTD/svg11.dtd">
<svg version="1.1" xmlns="http://www.w3.org/2000/svg" xmlns:xlink="http://www.w3.org/1999/xlink" x="0px" y="0px" width="30px"
	 height="30px" viewBox="0 0 30 30" style="enable-background:new 0 0 30 30;" xml:space="preserve">
<g id="Layer_1_1_">
	<polyline style="fill:none;stroke:#000000;stroke-miterlimit:10;" points="26.619,-374.583 15.036,-363 10,-368.036 	"/>
	<polyline style="fill:none;stroke:#000000;stroke-miterlimit:10;" points="0,-582.5 13,-582.5 29,-599.292 17,-610.875 
		0.5,-594.833 0.5,-582 	"/>
	<line style="fill:none;stroke:#000000;stroke-miterlimit:10;" x1="25" y1="-602.833" x2="12" y2="-589.833"/>
	<line style="fill:none;stroke:#000000;stroke-miterlimit:10;" x1="21" y1="-606.833" x2="12" y2="-597.833"/>
	<line style="fill:none;stroke:#000000;stroke-miterlimit:10;" x1="0.391" y1="-594.942" x2="13.25" y2="-582.083"/>
	<line style="fill:none;stroke:#000000;stroke-miterlimit:10;" x1="10.998" y1="-517.331" x2="19.002" y2="-525.335"/>
	<line style="fill:none;stroke:#000000;stroke-miterlimit:10;" x1="0" y1="-425.5" x2="13" y2="-425.5"/>
	<line style="fill:none;stroke:#000000;stroke-miterlimit:10;" x1="0" y1="-579.5" x2="13" y2="-579.5"/>
	<line style="fill:none;stroke:#000000;stroke-miterlimit:10;" x1="17" y1="-614.5" x2="30" y2="-614.5"/>
	<line style="fill:none;stroke:#000000;stroke-miterlimit:10;" x1="17" y1="-538.5" x2="30" y2="-538.5"/>
	<line style="fill:none;stroke:#000000;stroke-miterlimit:10;" x1="19.002" y1="-517.333" x2="10.999" y2="-525.335"/>
	<circle style="fill:none;stroke:#000000;stroke-miterlimit:10;" cx="24" cy="-530.333" r="5"/>
	<circle style="fill:none;stroke:#000000;stroke-miterlimit:10;" cx="6" cy="-530.333" r="5"/>
	<circle style="fill:none;stroke:#000000;stroke-miterlimit:10;" cx="24" cy="-512.333" r="5"/>
	<circle style="fill:none;stroke:#000000;stroke-miterlimit:10;" cx="6" cy="-512.333" r="5"/>
	<line style="fill:none;stroke:#000000;stroke-miterlimit:10;" x1="1.333" y1="-430.666" x2="14" y2="-443.333"/>
	<circle style="fill:none;stroke:#000000;stroke-miterlimit:10;" cx="20.5" cy="-449.833" r="8.833"/>
	<line style="fill:none;stroke:#000000;stroke-miterlimit:10;" x1="17" y1="-463.5" x2="30" y2="-463.5"/>
	<circle style="fill:none;stroke:#000000;stroke-miterlimit:10;" cx="20.5" cy="-449.833" r="5"/>
	<line style="fill:none;stroke:#000000;stroke-miterlimit:10;" x1="0" y1="-382.5" x2="13" y2="-382.5"/>
	<line style="fill:none;stroke:#000000;stroke-miterlimit:10;" x1="17" y1="-307.5" x2="30" y2="-307.5"/>
	<line style="fill:none;stroke:#000000;stroke-miterlimit:10;" x1="15" y1="-349.5" x2="0" y2="-349.5"/>
	<path style="fill:none;stroke:#000000;stroke-miterlimit:10;" d="M21-377c-2.454,0-4.633,1.179-6.001,3
		c-1.367-1.822-3.546-3-5.999-3c-4.142,0-7.5,3.357-7.5,7.5c0,1.688,0.559,3.248,1.5,4.501L4-364l11,11l10-10l1-0.91
		c1.534-1.373,2.5-3.368,2.5-5.59"/>
	<line style="fill:none;stroke:#000000;stroke-miterlimit:10;" x1="0" y1="-307.5" x2="13" y2="-307.5"/>
	<line style="fill:none;stroke:#000000;stroke-miterlimit:10;" x1="17" y1="-274.5" x2="30" y2="-274.5"/>
	<line style="fill:none;stroke:#000000;stroke-miterlimit:10;" x1="0" y1="-274.5" x2="13" y2="-274.5"/>
	<line style="fill:none;stroke:#000000;stroke-miterlimit:10;" x1="1.175" y1="-277.3" x2="28.175" y2="-304.3"/>
	<ellipse style="fill:none;stroke:#000000;stroke-miterlimit:10;" cx="23.175" cy="-304.5" rx="6" ry="0"/>
	<ellipse style="fill:none;stroke:#000000;stroke-miterlimit:10;" cx="28.5" cy="-298.8" rx="0" ry="6"/>
	<line style="fill:none;stroke:#000000;stroke-miterlimit:10;" x1="5.258" y1="-278.3" x2="2.216" y2="-281.342"/>
	<line style="fill:none;stroke:#000000;stroke-miterlimit:10;" x1="13.175" y1="-282.384" x2="6.3" y2="-289.259"/>
	<line style="fill:none;stroke:#000000;stroke-miterlimit:10;" x1="25.175" y1="-286.384" x2="10.3" y2="-301.259"/>
	<line style="fill:none;stroke:#000000;stroke-miterlimit:10;" x1="17" y1="-236.5" x2="30" y2="-236.5"/>
	<line style="fill:none;stroke:#000000;stroke-miterlimit:10;" x1="0" y1="-236.5" x2="13" y2="-236.5"/>
	<line style="fill:none;stroke:#000000;stroke-miterlimit:10;" x1="28.333" y1="-233.333" x2="2" y2="-207"/>
	<line style="fill:none;stroke:#000000;stroke-miterlimit:10;" x1="1.5" y1="-206" x2="1.5" y2="-215"/>
	<line style="fill:none;stroke:#000000;stroke-miterlimit:10;" x1="10" y1="-206.5" x2="1" y2="-206.5"/>
	<line style="fill:none;stroke:#000000;stroke-miterlimit:10;" x1="28.5" y1="-234" x2="28.5" y2="-225"/>
	<line style="fill:none;stroke:#000000;stroke-miterlimit:10;" x1="20" y1="-233.5" x2="29" y2="-233.5"/>
	<circle style="fill:none;stroke:#000000;stroke-miterlimit:10;" cx="7.833" cy="-227.833" r="5.5"/>
	<circle style="fill:none;stroke:#000000;stroke-miterlimit:10;" cx="22.833" cy="-212.833" r="5.5"/>
	<line style="fill:none;stroke:#000000;stroke-miterlimit:10;" x1="28.666" y1="-170.666" x2="2" y2="-144"/>
	<line style="fill:none;stroke:#000000;stroke-miterlimit:10;" x1="1.5" y1="-143" x2="1.5" y2="-152"/>
	<line style="fill:none;stroke:#000000;stroke-miterlimit:10;" x1="10" y1="-143.5" x2="1" y2="-143.5"/>
	<rect x="15.5" y="-170.5" style="fill:none;stroke:#000000;stroke-miterlimit:10;" width="13" height="13"/>
	<line style="fill:none;stroke:#000000;stroke-miterlimit:10;" x1="16.333" y1="-170.333" x2="28.833" y2="-157.833"/>
	<rect x="9.5" y="-122.5" style="fill:none;stroke:#000000;stroke-miterlimit:10;" width="18" height="18"/>
	<circle style="fill:none;stroke:#000000;stroke-miterlimit:10;" cx="10.167" cy="-104.667" r="9"/>
	<line style="fill:none;stroke:#000000;stroke-miterlimit:10;" x1="10.166" y1="-104.667" x2="16.499" y2="-111"/>
	<line style="fill:none;stroke:#000000;stroke-miterlimit:10;" x1="1.5" y1="-55" x2="1.5" y2="-27"/>
	<line style="fill:none;stroke:#000000;stroke-miterlimit:10;" x1="1" y1="-27.5" x2="29" y2="-27.5"/>
	<line style="fill:none;stroke:#000000;stroke-miterlimit:10;" x1="4.174" y1="-30.303" x2="28.174" y2="-54.303"/>
	<path style="fill:none;stroke:#000000;stroke-miterlimit:10;" d="M22.174-42.303c0,3.313-2.684,6-6,6c-3.311,0-6-2.687-6-6
		s2.689-6,6-6C19.49-48.303,22.174-45.616,22.174-42.303z"/>
	<line style="fill:none;stroke:#000000;stroke-miterlimit:10;" x1="2.25" y1="23.501" x2="28.25" y2="-2.499"/>
	<line style="fill:none;stroke:#000000;stroke-miterlimit:10;" x1="28" y1="11.5" x2="22" y2="11.5"/>
	<line style="fill:none;stroke:#000000;stroke-miterlimit:10;" x1="28" y1="16.5" x2="16" y2="16.5"/>
	<line style="fill:none;stroke:#000000;stroke-miterlimit:10;" x1="28" y1="21.5" x2="11" y2="21.5"/>
	<circle style="fill:none;stroke:#000000;stroke-miterlimit:10;" cx="8.25" cy="4.5" r="5"/>
	<line style="fill:none;stroke:#000000;stroke-miterlimit:10;" x1="0" y1="70.5" x2="15" y2="70.5"/>
	<polygon style="fill:none;stroke:#000000;stroke-miterlimit:10;" points="6.406,44.331 2.154,48.583 2,48.718 15,61.664 28,48.664 
		26.267,46.858 23.702,44.295 	"/>
	<line style="fill:none;stroke:#000000;stroke-miterlimit:10;" x1="2" y1="48.5" x2="28" y2="48.5"/>
	<polyline style="fill:none;stroke:#000000;stroke-miterlimit:10;" points="7,44 11.5,48.5 15.5,44.5 19.5,48.5 	"/>
	<circle style="fill:none;stroke:#000000;stroke-miterlimit:10;" cx="24" cy="96.167" r="5"/>
	<circle style="fill:none;stroke:#000000;stroke-miterlimit:10;" cx="6" cy="114.167" r="5"/>
	<line style="fill:none;stroke:#000000;stroke-miterlimit:10;" x1="15.5" y1="99" x2="15.5" y2="112"/>
	<line style="fill:none;stroke:#000000;stroke-miterlimit:10;" x1="9" y1="105.5" x2="22" y2="105.5"/>
	<line style="fill:none;stroke:#000000;stroke-miterlimit:10;" x1="1" y1="159" x2="29" y2="131"/>
	<rect x="5.5" y="136.5" style="fill:none;stroke:#000000;stroke-miterlimit:10;" width="18" height="18"/>
	<line style="fill:none;stroke:#000000;stroke-miterlimit:10;" x1="1" y1="131" x2="29" y2="159"/>
</g>
<g id="Layer_1">
</g>
</svg>
