<?xml version="1.0" encoding="iso-8859-1"?>
<!-- Generator: Adobe Illustrator 16.0.0, SVG Export Plug-In . SVG Version: 6.00 Build 0)  -->
<!DOCTYPE svg PUBLIC "-//W3C//DTD SVG 1.1//EN" "http://www.w3.org/Graphics/SVG/1.1/DTD/svg11.dtd">
<svg version="1.1" xmlns="http://www.w3.org/2000/svg" xmlns:xlink="http://www.w3.org/1999/xlink" x="0px" y="0px" width="30px"
	 height="30px" viewBox="0 0 30 30" style="enable-background:new 0 0 30 30;" xml:space="preserve">
<g id="Layer_1_1_">
	<polyline style="fill:none;stroke:#000000;stroke-miterlimit:10;" points="26.619,-516.583 15.036,-505 10,-510.036 	"/>
	<polyline style="fill:none;stroke:#000000;stroke-miterlimit:10;" points="0,-724.5 13,-724.5 29,-741.292 17,-752.875 
		0.5,-736.833 0.5,-724 	"/>
	<line style="fill:none;stroke:#000000;stroke-miterlimit:10;" x1="25" y1="-744.833" x2="12" y2="-731.833"/>
	<line style="fill:none;stroke:#000000;stroke-miterlimit:10;" x1="21" y1="-748.833" x2="12" y2="-739.833"/>
	<line style="fill:none;stroke:#000000;stroke-miterlimit:10;" x1="0.391" y1="-736.942" x2="13.25" y2="-724.083"/>
	<line style="fill:none;stroke:#000000;stroke-miterlimit:10;" x1="10.998" y1="-659.331" x2="19.002" y2="-667.335"/>
	<line style="fill:none;stroke:#000000;stroke-miterlimit:10;" x1="0" y1="-567.5" x2="13" y2="-567.5"/>
	<line style="fill:none;stroke:#000000;stroke-miterlimit:10;" x1="0" y1="-721.5" x2="13" y2="-721.5"/>
	<line style="fill:none;stroke:#000000;stroke-miterlimit:10;" x1="17" y1="-756.5" x2="30" y2="-756.5"/>
	<line style="fill:none;stroke:#000000;stroke-miterlimit:10;" x1="17" y1="-680.5" x2="30" y2="-680.5"/>
	<line style="fill:none;stroke:#000000;stroke-miterlimit:10;" x1="19.002" y1="-659.333" x2="10.999" y2="-667.335"/>
	<circle style="fill:none;stroke:#000000;stroke-miterlimit:10;" cx="24" cy="-672.333" r="5"/>
	<circle style="fill:none;stroke:#000000;stroke-miterlimit:10;" cx="6" cy="-672.333" r="5"/>
	<circle style="fill:none;stroke:#000000;stroke-miterlimit:10;" cx="24" cy="-654.333" r="5"/>
	<circle style="fill:none;stroke:#000000;stroke-miterlimit:10;" cx="6" cy="-654.333" r="5"/>
	<line style="fill:none;stroke:#000000;stroke-miterlimit:10;" x1="1.333" y1="-572.666" x2="14" y2="-585.333"/>
	<circle style="fill:none;stroke:#000000;stroke-miterlimit:10;" cx="20.5" cy="-591.833" r="8.833"/>
	<line style="fill:none;stroke:#000000;stroke-miterlimit:10;" x1="17" y1="-605.5" x2="30" y2="-605.5"/>
	<circle style="fill:none;stroke:#000000;stroke-miterlimit:10;" cx="20.5" cy="-591.833" r="5"/>
	<line style="fill:none;stroke:#000000;stroke-miterlimit:10;" x1="0" y1="-524.5" x2="13" y2="-524.5"/>
	<line style="fill:none;stroke:#000000;stroke-miterlimit:10;" x1="17" y1="-449.5" x2="30" y2="-449.5"/>
	<line style="fill:none;stroke:#000000;stroke-miterlimit:10;" x1="15" y1="-491.5" x2="0" y2="-491.5"/>
	<path style="fill:none;stroke:#000000;stroke-miterlimit:10;" d="M21-519c-2.454,0-4.633,1.179-6.001,3
		c-1.367-1.822-3.546-3-5.999-3c-4.142,0-7.5,3.357-7.5,7.5c0,1.688,0.559,3.248,1.5,4.501L4-506l11,11l10-10l1-0.91
		c1.534-1.373,2.5-3.368,2.5-5.59"/>
	<line style="fill:none;stroke:#000000;stroke-miterlimit:10;" x1="0" y1="-449.5" x2="13" y2="-449.5"/>
	<line style="fill:none;stroke:#000000;stroke-miterlimit:10;" x1="17" y1="-416.5" x2="30" y2="-416.5"/>
	<line style="fill:none;stroke:#000000;stroke-miterlimit:10;" x1="0" y1="-416.5" x2="13" y2="-416.5"/>
	<line style="fill:none;stroke:#000000;stroke-miterlimit:10;" x1="1.175" y1="-419.3" x2="28.175" y2="-446.3"/>
	<ellipse style="fill:none;stroke:#000000;stroke-miterlimit:10;" cx="23.175" cy="-446.5" rx="6" ry="0"/>
	<ellipse style="fill:none;stroke:#000000;stroke-miterlimit:10;" cx="28.5" cy="-440.8" rx="0" ry="6"/>
	<line style="fill:none;stroke:#000000;stroke-miterlimit:10;" x1="5.258" y1="-420.3" x2="2.216" y2="-423.342"/>
	<line style="fill:none;stroke:#000000;stroke-miterlimit:10;" x1="13.175" y1="-424.384" x2="6.3" y2="-431.259"/>
	<line style="fill:none;stroke:#000000;stroke-miterlimit:10;" x1="25.175" y1="-428.384" x2="10.3" y2="-443.259"/>
	<line style="fill:none;stroke:#000000;stroke-miterlimit:10;" x1="17" y1="-378.5" x2="30" y2="-378.5"/>
	<line style="fill:none;stroke:#000000;stroke-miterlimit:10;" x1="0" y1="-378.5" x2="13" y2="-378.5"/>
	<line style="fill:none;stroke:#000000;stroke-miterlimit:10;" x1="28.333" y1="-375.333" x2="2" y2="-349"/>
	<line style="fill:none;stroke:#000000;stroke-miterlimit:10;" x1="1.5" y1="-348" x2="1.5" y2="-357"/>
	<line style="fill:none;stroke:#000000;stroke-miterlimit:10;" x1="10" y1="-348.5" x2="1" y2="-348.5"/>
	<line style="fill:none;stroke:#000000;stroke-miterlimit:10;" x1="28.5" y1="-376" x2="28.5" y2="-367"/>
	<line style="fill:none;stroke:#000000;stroke-miterlimit:10;" x1="20" y1="-375.5" x2="29" y2="-375.5"/>
	<circle style="fill:none;stroke:#000000;stroke-miterlimit:10;" cx="7.833" cy="-369.833" r="5.5"/>
	<circle style="fill:none;stroke:#000000;stroke-miterlimit:10;" cx="22.833" cy="-354.833" r="5.5"/>
	<line style="fill:none;stroke:#000000;stroke-miterlimit:10;" x1="28.666" y1="-312.666" x2="2" y2="-286"/>
	<line style="fill:none;stroke:#000000;stroke-miterlimit:10;" x1="1.5" y1="-285" x2="1.5" y2="-294"/>
	<line style="fill:none;stroke:#000000;stroke-miterlimit:10;" x1="10" y1="-285.5" x2="1" y2="-285.5"/>
	<rect x="15.5" y="-312.5" style="fill:none;stroke:#000000;stroke-miterlimit:10;" width="13" height="13"/>
	<line style="fill:none;stroke:#000000;stroke-miterlimit:10;" x1="16.333" y1="-312.333" x2="28.833" y2="-299.833"/>
	<rect x="9.5" y="-264.5" style="fill:none;stroke:#000000;stroke-miterlimit:10;" width="18" height="18"/>
	<circle style="fill:none;stroke:#000000;stroke-miterlimit:10;" cx="10.167" cy="-246.667" r="9"/>
	<line style="fill:none;stroke:#000000;stroke-miterlimit:10;" x1="10.166" y1="-246.667" x2="16.499" y2="-253"/>
	<line style="fill:none;stroke:#000000;stroke-miterlimit:10;" x1="1.5" y1="-197" x2="1.5" y2="-169"/>
	<line style="fill:none;stroke:#000000;stroke-miterlimit:10;" x1="1" y1="-169.5" x2="29" y2="-169.5"/>
	<line style="fill:none;stroke:#000000;stroke-miterlimit:10;" x1="4.174" y1="-172.303" x2="28.174" y2="-196.303"/>
	<path style="fill:none;stroke:#000000;stroke-miterlimit:10;" d="M22.174-184.303c0,3.313-2.684,6-6,6c-3.311,0-6-2.687-6-6
		s2.689-6,6-6C19.49-190.303,22.174-187.616,22.174-184.303z"/>
	<line style="fill:none;stroke:#000000;stroke-miterlimit:10;" x1="2.25" y1="-118.499" x2="28.25" y2="-144.499"/>
	<line style="fill:none;stroke:#000000;stroke-miterlimit:10;" x1="28" y1="-130.5" x2="22" y2="-130.5"/>
	<line style="fill:none;stroke:#000000;stroke-miterlimit:10;" x1="28" y1="-125.5" x2="16" y2="-125.5"/>
	<line style="fill:none;stroke:#000000;stroke-miterlimit:10;" x1="28" y1="-120.5" x2="11" y2="-120.5"/>
	<circle style="fill:none;stroke:#000000;stroke-miterlimit:10;" cx="8.25" cy="-137.5" r="5"/>
	<line style="fill:none;stroke:#000000;stroke-miterlimit:10;" x1="0" y1="-71.5" x2="15" y2="-71.5"/>
	<polygon style="fill:none;stroke:#000000;stroke-miterlimit:10;" points="6.406,-97.669 2.154,-93.417 2,-93.282 15,-80.336 
		28,-93.336 26.267,-95.142 23.702,-97.705 	"/>
	<line style="fill:none;stroke:#000000;stroke-miterlimit:10;" x1="2" y1="-93.5" x2="28" y2="-93.5"/>
	<polyline style="fill:none;stroke:#000000;stroke-miterlimit:10;" points="7,-98 11.5,-93.5 15.5,-97.5 19.5,-93.5 	"/>
	<circle style="fill:none;stroke:#000000;stroke-miterlimit:10;" cx="24" cy="-45.833" r="5"/>
	<circle style="fill:none;stroke:#000000;stroke-miterlimit:10;" cx="6" cy="-27.833" r="5"/>
	<line style="fill:none;stroke:#000000;stroke-miterlimit:10;" x1="15.5" y1="-43" x2="15.5" y2="-30"/>
	<line style="fill:none;stroke:#000000;stroke-miterlimit:10;" x1="9" y1="-36.5" x2="22" y2="-36.5"/>
	<line style="fill:none;stroke:#000000;stroke-miterlimit:10;" x1="1" y1="17" x2="29" y2="-11"/>
	<rect x="5.5" y="-5.5" style="fill:none;stroke:#000000;stroke-miterlimit:10;" width="18" height="18"/>
	<line style="fill:none;stroke:#000000;stroke-miterlimit:10;" x1="1" y1="-11" x2="29" y2="17"/>
</g>
<g id="Layer_1">
</g>
</svg>
