<?xml version="1.0" encoding="iso-8859-1"?>
<!-- Generator: Adobe Illustrator 16.0.0, SVG Export Plug-In . SVG Version: 6.00 Build 0)  -->
<!DOCTYPE svg PUBLIC "-//W3C//DTD SVG 1.1//EN" "http://www.w3.org/Graphics/SVG/1.1/DTD/svg11.dtd">
<svg version="1.1" xmlns="http://www.w3.org/2000/svg" xmlns:xlink="http://www.w3.org/1999/xlink" x="0px" y="0px" width="30px"
	 height="30px" viewBox="0 0 30 30" style="enable-background:new 0 0 30 30;" xml:space="preserve">
<g id="Layer_1_1_">
	<polyline style="fill:none;stroke:#000000;stroke-miterlimit:10;" points="26.619,-738.583 15.036,-727 10,-732.036 	"/>
	<polyline style="fill:none;stroke:#000000;stroke-miterlimit:10;" points="0,-946.5 13,-946.5 29,-963.292 17,-974.875 
		0.5,-958.833 0.5,-946 	"/>
	<line style="fill:none;stroke:#000000;stroke-miterlimit:10;" x1="25" y1="-966.833" x2="12" y2="-953.833"/>
	<line style="fill:none;stroke:#000000;stroke-miterlimit:10;" x1="21" y1="-970.833" x2="12" y2="-961.833"/>
	<line style="fill:none;stroke:#000000;stroke-miterlimit:10;" x1="0.391" y1="-958.942" x2="13.25" y2="-946.083"/>
	<line style="fill:none;stroke:#000000;stroke-miterlimit:10;" x1="10.998" y1="-881.331" x2="19.002" y2="-889.335"/>
	<line style="fill:none;stroke:#000000;stroke-miterlimit:10;" x1="0" y1="-789.5" x2="13" y2="-789.5"/>
	<line style="fill:none;stroke:#000000;stroke-miterlimit:10;" x1="0" y1="-943.5" x2="13" y2="-943.5"/>
	<line style="fill:none;stroke:#000000;stroke-miterlimit:10;" x1="17" y1="-978.5" x2="30" y2="-978.5"/>
	<line style="fill:none;stroke:#000000;stroke-miterlimit:10;" x1="17" y1="-902.5" x2="30" y2="-902.5"/>
	<line style="fill:none;stroke:#000000;stroke-miterlimit:10;" x1="19.002" y1="-881.333" x2="10.999" y2="-889.335"/>
	<circle style="fill:none;stroke:#000000;stroke-miterlimit:10;" cx="24" cy="-894.333" r="5"/>
	<circle style="fill:none;stroke:#000000;stroke-miterlimit:10;" cx="6" cy="-894.333" r="5"/>
	<circle style="fill:none;stroke:#000000;stroke-miterlimit:10;" cx="24" cy="-876.333" r="5"/>
	<circle style="fill:none;stroke:#000000;stroke-miterlimit:10;" cx="6" cy="-876.333" r="5"/>
	<line style="fill:none;stroke:#000000;stroke-miterlimit:10;" x1="1.333" y1="-794.666" x2="14" y2="-807.333"/>
	<circle style="fill:none;stroke:#000000;stroke-miterlimit:10;" cx="20.5" cy="-813.833" r="8.833"/>
	<line style="fill:none;stroke:#000000;stroke-miterlimit:10;" x1="17" y1="-827.5" x2="30" y2="-827.5"/>
	<circle style="fill:none;stroke:#000000;stroke-miterlimit:10;" cx="20.5" cy="-813.833" r="5"/>
	<line style="fill:none;stroke:#000000;stroke-miterlimit:10;" x1="0" y1="-746.5" x2="13" y2="-746.5"/>
	<line style="fill:none;stroke:#000000;stroke-miterlimit:10;" x1="17" y1="-671.5" x2="30" y2="-671.5"/>
	<line style="fill:none;stroke:#000000;stroke-miterlimit:10;" x1="15" y1="-713.5" x2="0" y2="-713.5"/>
	<path style="fill:none;stroke:#000000;stroke-miterlimit:10;" d="M21-741c-2.454,0-4.633,1.179-6.001,3
		c-1.367-1.822-3.546-3-5.999-3c-4.142,0-7.5,3.357-7.5,7.5c0,1.688,0.559,3.248,1.5,4.501L4-728l11,11l10-10l1-0.91
		c1.534-1.373,2.5-3.368,2.5-5.59"/>
	<line style="fill:none;stroke:#000000;stroke-miterlimit:10;" x1="0" y1="-671.5" x2="13" y2="-671.5"/>
	<line style="fill:none;stroke:#000000;stroke-miterlimit:10;" x1="17" y1="-638.5" x2="30" y2="-638.5"/>
	<line style="fill:none;stroke:#000000;stroke-miterlimit:10;" x1="0" y1="-638.5" x2="13" y2="-638.5"/>
	<line style="fill:none;stroke:#000000;stroke-miterlimit:10;" x1="1.175" y1="-641.3" x2="28.175" y2="-668.3"/>
	<ellipse style="fill:none;stroke:#000000;stroke-miterlimit:10;" cx="23.175" cy="-668.5" rx="6" ry="0"/>
	<ellipse style="fill:none;stroke:#000000;stroke-miterlimit:10;" cx="28.5" cy="-662.8" rx="0" ry="6"/>
	<line style="fill:none;stroke:#000000;stroke-miterlimit:10;" x1="5.258" y1="-642.3" x2="2.216" y2="-645.342"/>
	<line style="fill:none;stroke:#000000;stroke-miterlimit:10;" x1="13.175" y1="-646.384" x2="6.3" y2="-653.259"/>
	<line style="fill:none;stroke:#000000;stroke-miterlimit:10;" x1="25.175" y1="-650.384" x2="10.3" y2="-665.259"/>
	<line style="fill:none;stroke:#000000;stroke-miterlimit:10;" x1="17" y1="-600.5" x2="30" y2="-600.5"/>
	<line style="fill:none;stroke:#000000;stroke-miterlimit:10;" x1="0" y1="-600.5" x2="13" y2="-600.5"/>
	<line style="fill:none;stroke:#000000;stroke-miterlimit:10;" x1="28.333" y1="-597.333" x2="2" y2="-571"/>
	<line style="fill:none;stroke:#000000;stroke-miterlimit:10;" x1="1.5" y1="-570" x2="1.5" y2="-579"/>
	<line style="fill:none;stroke:#000000;stroke-miterlimit:10;" x1="10" y1="-570.5" x2="1" y2="-570.5"/>
	<line style="fill:none;stroke:#000000;stroke-miterlimit:10;" x1="28.5" y1="-598" x2="28.5" y2="-589"/>
	<line style="fill:none;stroke:#000000;stroke-miterlimit:10;" x1="20" y1="-597.5" x2="29" y2="-597.5"/>
	<circle style="fill:none;stroke:#000000;stroke-miterlimit:10;" cx="7.833" cy="-591.833" r="5.5"/>
	<circle style="fill:none;stroke:#000000;stroke-miterlimit:10;" cx="22.833" cy="-576.833" r="5.5"/>
	<line style="fill:none;stroke:#000000;stroke-miterlimit:10;" x1="28.666" y1="-534.666" x2="2" y2="-508"/>
	<line style="fill:none;stroke:#000000;stroke-miterlimit:10;" x1="1.5" y1="-507" x2="1.5" y2="-516"/>
	<line style="fill:none;stroke:#000000;stroke-miterlimit:10;" x1="10" y1="-507.5" x2="1" y2="-507.5"/>
	<rect x="15.5" y="-534.5" style="fill:none;stroke:#000000;stroke-miterlimit:10;" width="13" height="13"/>
	<line style="fill:none;stroke:#000000;stroke-miterlimit:10;" x1="16.333" y1="-534.333" x2="28.833" y2="-521.833"/>
	<rect x="9.5" y="-486.5" style="fill:none;stroke:#000000;stroke-miterlimit:10;" width="18" height="18"/>
	<circle style="fill:none;stroke:#000000;stroke-miterlimit:10;" cx="10.167" cy="-468.667" r="9"/>
	<line style="fill:none;stroke:#000000;stroke-miterlimit:10;" x1="10.166" y1="-468.667" x2="16.499" y2="-475"/>
	<line style="fill:none;stroke:#000000;stroke-miterlimit:10;" x1="1.5" y1="-419" x2="1.5" y2="-391"/>
	<line style="fill:none;stroke:#000000;stroke-miterlimit:10;" x1="1" y1="-391.5" x2="29" y2="-391.5"/>
	<line style="fill:none;stroke:#000000;stroke-miterlimit:10;" x1="4.174" y1="-394.303" x2="28.174" y2="-418.303"/>
	<path style="fill:none;stroke:#000000;stroke-miterlimit:10;" d="M22.174-406.303c0,3.313-2.684,6-6,6c-3.311,0-6-2.687-6-6
		s2.689-6,6-6C19.49-412.303,22.174-409.616,22.174-406.303z"/>
	<line style="fill:none;stroke:#000000;stroke-miterlimit:10;" x1="2.25" y1="-340.499" x2="28.25" y2="-366.499"/>
	<line style="fill:none;stroke:#000000;stroke-miterlimit:10;" x1="28" y1="-352.5" x2="22" y2="-352.5"/>
	<line style="fill:none;stroke:#000000;stroke-miterlimit:10;" x1="28" y1="-347.5" x2="16" y2="-347.5"/>
	<line style="fill:none;stroke:#000000;stroke-miterlimit:10;" x1="28" y1="-342.5" x2="11" y2="-342.5"/>
	<circle style="fill:none;stroke:#000000;stroke-miterlimit:10;" cx="8.25" cy="-359.5" r="5"/>
	<line style="fill:none;stroke:#000000;stroke-miterlimit:10;" x1="0" y1="-293.5" x2="15" y2="-293.5"/>
	<polygon style="fill:none;stroke:#000000;stroke-miterlimit:10;" points="6.406,-319.669 2.154,-315.417 2,-315.282 15,-302.336 
		28,-315.336 26.267,-317.142 23.702,-319.705 	"/>
	<line style="fill:none;stroke:#000000;stroke-miterlimit:10;" x1="2" y1="-315.5" x2="28" y2="-315.5"/>
	<polyline style="fill:none;stroke:#000000;stroke-miterlimit:10;" points="7,-320 11.5,-315.5 15.5,-319.5 19.5,-315.5 	"/>
	<circle style="fill:none;stroke:#000000;stroke-miterlimit:10;" cx="24" cy="-267.833" r="5"/>
	<circle style="fill:none;stroke:#000000;stroke-miterlimit:10;" cx="6" cy="-249.833" r="5"/>
	<line style="fill:none;stroke:#000000;stroke-miterlimit:10;" x1="15.5" y1="-265" x2="15.5" y2="-252"/>
	<line style="fill:none;stroke:#000000;stroke-miterlimit:10;" x1="9" y1="-258.5" x2="22" y2="-258.5"/>
	<line style="fill:none;stroke:#000000;stroke-miterlimit:10;" x1="1" y1="-205" x2="29" y2="-233"/>
	<rect x="5.5" y="-227.5" style="fill:none;stroke:#000000;stroke-miterlimit:10;" width="18" height="18"/>
	<line style="fill:none;stroke:#000000;stroke-miterlimit:10;" x1="1" y1="-233" x2="29" y2="-205"/>
</g>
<g id="Layer_1">
</g>
</svg>
