<?xml version="1.0" encoding="iso-8859-1"?>
<!-- Generator: Adobe Illustrator 16.0.0, SVG Export Plug-In . SVG Version: 6.00 Build 0)  -->
<!DOCTYPE svg PUBLIC "-//W3C//DTD SVG 1.1//EN" "http://www.w3.org/Graphics/SVG/1.1/DTD/svg11.dtd">
<svg version="1.1" xmlns="http://www.w3.org/2000/svg" xmlns:xlink="http://www.w3.org/1999/xlink" x="0px" y="0px" width="30px"
	 height="29.354px" viewBox="0 0 30 29.354" style="enable-background:new 0 0 30 29.354;" xml:space="preserve">
<g id="Layer_1_1_">
	<polyline style="fill:none;stroke:#000000;stroke-miterlimit:10;" points="26.619,-1246.583 15.036,-1235 10,-1240.036 	"/>
	<polyline style="fill:none;stroke:#000000;stroke-miterlimit:10;" points="0,-1454.146 13,-1454.146 29,-1471.115 17,-1482.787 
		0.5,-1466.833 0.5,-1453.646 	"/>
	<line style="fill:none;stroke:#000000;stroke-miterlimit:10;" x1="25" y1="-1474.833" x2="12" y2="-1461.833"/>
	<line style="fill:none;stroke:#000000;stroke-miterlimit:10;" x1="21" y1="-1478.833" x2="12" y2="-1469.833"/>
	<line style="fill:none;stroke:#000000;stroke-miterlimit:10;" x1="0.391" y1="-1466.942" x2="13.25" y2="-1454.083"/>
	<line style="fill:none;stroke:#000000;stroke-miterlimit:10;" x1="10.998" y1="-1389.331" x2="19.002" y2="-1397.335"/>
	<line style="fill:none;stroke:#000000;stroke-miterlimit:10;" x1="0" y1="-1297.146" x2="13" y2="-1297.146"/>
	<line style="fill:none;stroke:#000000;stroke-miterlimit:10;" x1="0" y1="-1451.146" x2="13" y2="-1451.146"/>
	<line style="fill:none;stroke:#000000;stroke-miterlimit:10;" x1="17" y1="-1486.146" x2="30" y2="-1486.146"/>
	<line style="fill:none;stroke:#000000;stroke-miterlimit:10;" x1="17" y1="-1410.146" x2="30" y2="-1410.146"/>
	<line style="fill:none;stroke:#000000;stroke-miterlimit:10;" x1="19.002" y1="-1389.333" x2="10.999" y2="-1397.335"/>
	<circle style="fill:none;stroke:#000000;stroke-miterlimit:10;" cx="24" cy="-1402.333" r="5"/>
	<circle style="fill:none;stroke:#000000;stroke-miterlimit:10;" cx="6" cy="-1402.333" r="5"/>
	<circle style="fill:none;stroke:#000000;stroke-miterlimit:10;" cx="24" cy="-1384.333" r="5"/>
	<circle style="fill:none;stroke:#000000;stroke-miterlimit:10;" cx="6" cy="-1384.333" r="5"/>
	<line style="fill:none;stroke:#000000;stroke-miterlimit:10;" x1="1.333" y1="-1302.666" x2="14" y2="-1315.333"/>
	<circle style="fill:none;stroke:#000000;stroke-miterlimit:10;" cx="20.5" cy="-1321.833" r="8.833"/>
	<line style="fill:none;stroke:#000000;stroke-miterlimit:10;" x1="17" y1="-1335.146" x2="30" y2="-1335.146"/>
	<circle style="fill:none;stroke:#000000;stroke-miterlimit:10;" cx="20.5" cy="-1321.833" r="5"/>
	<line style="fill:none;stroke:#000000;stroke-miterlimit:10;" x1="0" y1="-1254.146" x2="13" y2="-1254.146"/>
	<line style="fill:none;stroke:#000000;stroke-miterlimit:10;" x1="17" y1="-1179.146" x2="30" y2="-1179.146"/>
	<line style="fill:none;stroke:#000000;stroke-miterlimit:10;" x1="15" y1="-1221.146" x2="0" y2="-1221.146"/>
	<path style="fill:none;stroke:#000000;stroke-miterlimit:10;" d="M21-1249c-2.454,0-4.633,1.179-6.001,3
		c-1.367-1.822-3.546-3-5.999-3c-4.142,0-7.5,3.357-7.5,7.5c0,1.688,0.559,3.248,1.5,4.501L4-1236l11,11l10-10l1-0.91
		c1.534-1.373,2.5-3.368,2.5-5.59"/>
	<line style="fill:none;stroke:#000000;stroke-miterlimit:10;" x1="0" y1="-1179.146" x2="13" y2="-1179.146"/>
	<line style="fill:none;stroke:#000000;stroke-miterlimit:10;" x1="17" y1="-1146.146" x2="30" y2="-1146.146"/>
	<line style="fill:none;stroke:#000000;stroke-miterlimit:10;" x1="0" y1="-1146.146" x2="13" y2="-1146.146"/>
	<line style="fill:none;stroke:#000000;stroke-miterlimit:10;" x1="1.175" y1="-1149.3" x2="28.175" y2="-1176.3"/>
	<ellipse style="fill:none;stroke:#000000;stroke-miterlimit:10;" cx="23.175" cy="-1176.146" rx="6" ry="0"/>
	<ellipse style="fill:none;stroke:#000000;stroke-miterlimit:10;" cx="28.5" cy="-1170.8" rx="0" ry="6"/>
	<line style="fill:none;stroke:#000000;stroke-miterlimit:10;" x1="5.258" y1="-1150.3" x2="2.216" y2="-1153.342"/>
	<line style="fill:none;stroke:#000000;stroke-miterlimit:10;" x1="13.175" y1="-1154.384" x2="6.3" y2="-1161.259"/>
	<line style="fill:none;stroke:#000000;stroke-miterlimit:10;" x1="25.175" y1="-1158.384" x2="10.3" y2="-1173.259"/>
	<line style="fill:none;stroke:#000000;stroke-miterlimit:10;" x1="17" y1="-1108.146" x2="30" y2="-1108.146"/>
	<line style="fill:none;stroke:#000000;stroke-miterlimit:10;" x1="0" y1="-1108.146" x2="13" y2="-1108.146"/>
	<line style="fill:none;stroke:#000000;stroke-miterlimit:10;" x1="28.333" y1="-1105.333" x2="2" y2="-1079"/>
	<line style="fill:none;stroke:#000000;stroke-miterlimit:10;" x1="1.5" y1="-1077.646" x2="1.5" y2="-1086.646"/>
	<line style="fill:none;stroke:#000000;stroke-miterlimit:10;" x1="10" y1="-1078.146" x2="1" y2="-1078.146"/>
	<line style="fill:none;stroke:#000000;stroke-miterlimit:10;" x1="28.5" y1="-1105.646" x2="28.5" y2="-1096.646"/>
	<line style="fill:none;stroke:#000000;stroke-miterlimit:10;" x1="20" y1="-1105.146" x2="29" y2="-1105.146"/>
	<circle style="fill:none;stroke:#000000;stroke-miterlimit:10;" cx="7.833" cy="-1099.833" r="5.5"/>
	<circle style="fill:none;stroke:#000000;stroke-miterlimit:10;" cx="22.833" cy="-1084.833" r="5.5"/>
	<line style="fill:none;stroke:#000000;stroke-miterlimit:10;" x1="28.666" y1="-1042.666" x2="2" y2="-1016"/>
	<line style="fill:none;stroke:#000000;stroke-miterlimit:10;" x1="1.5" y1="-1014.646" x2="1.5" y2="-1023.646"/>
	<line style="fill:none;stroke:#000000;stroke-miterlimit:10;" x1="10" y1="-1015.146" x2="1" y2="-1015.146"/>
	<rect x="15.5" y="-1042.146" style="fill:none;stroke:#000000;stroke-miterlimit:10;" width="13" height="13"/>
	<line style="fill:none;stroke:#000000;stroke-miterlimit:10;" x1="16.333" y1="-1042.333" x2="28.833" y2="-1029.833"/>
	<rect x="9.5" y="-994.146" style="fill:none;stroke:#000000;stroke-miterlimit:10;" width="18" height="18"/>
	<circle style="fill:none;stroke:#000000;stroke-miterlimit:10;" cx="10.167" cy="-976.667" r="9"/>
	<line style="fill:none;stroke:#000000;stroke-miterlimit:10;" x1="10.166" y1="-976.667" x2="16.499" y2="-983"/>
	<line style="fill:none;stroke:#000000;stroke-miterlimit:10;" x1="1.5" y1="-926.646" x2="1.5" y2="-898.646"/>
	<line style="fill:none;stroke:#000000;stroke-miterlimit:10;" x1="1" y1="-899.146" x2="29" y2="-899.146"/>
	<line style="fill:none;stroke:#000000;stroke-miterlimit:10;" x1="4.174" y1="-902.303" x2="28.174" y2="-926.303"/>
	<path style="fill:none;stroke:#000000;stroke-miterlimit:10;" d="M22.174-914.303c0,3.313-2.684,6-6,6c-3.311,0-6-2.687-6-6
		s2.689-6,6-6C19.49-920.303,22.174-917.616,22.174-914.303z"/>
	<line style="fill:none;stroke:#000000;stroke-miterlimit:10;" x1="2.25" y1="-848.499" x2="28.25" y2="-874.499"/>
	<line style="fill:none;stroke:#000000;stroke-miterlimit:10;" x1="28" y1="-860.146" x2="22" y2="-860.146"/>
	<line style="fill:none;stroke:#000000;stroke-miterlimit:10;" x1="28" y1="-855.146" x2="16" y2="-855.146"/>
	<line style="fill:none;stroke:#000000;stroke-miterlimit:10;" x1="28" y1="-850.146" x2="11" y2="-850.146"/>
	<circle style="fill:none;stroke:#000000;stroke-miterlimit:10;" cx="8.25" cy="-867.5" r="5"/>
	<line style="fill:none;stroke:#000000;stroke-miterlimit:10;" x1="0" y1="-801.146" x2="15" y2="-801.146"/>
	<polygon style="fill:none;stroke:#000000;stroke-miterlimit:10;" points="6.406,-827.669 2.154,-823.417 2,-823.282 15,-810.336 
		28,-823.336 26.267,-825.142 23.702,-827.705 	"/>
	<line style="fill:none;stroke:#000000;stroke-miterlimit:10;" x1="2" y1="-823.146" x2="28" y2="-823.146"/>
	<polyline style="fill:none;stroke:#000000;stroke-miterlimit:10;" points="7,-828 11.5,-823.5 15.5,-827.5 19.5,-823.5 	"/>
	<circle style="fill:none;stroke:#000000;stroke-miterlimit:10;" cx="24" cy="-775.833" r="5"/>
	<circle style="fill:none;stroke:#000000;stroke-miterlimit:10;" cx="6" cy="-757.833" r="5"/>
	<line style="fill:none;stroke:#000000;stroke-miterlimit:10;" x1="15.5" y1="-772.646" x2="15.5" y2="-759.646"/>
	<line style="fill:none;stroke:#000000;stroke-miterlimit:10;" x1="9" y1="-766.146" x2="22" y2="-766.146"/>
	<line style="fill:none;stroke:#000000;stroke-miterlimit:10;" x1="1" y1="-713" x2="29" y2="-741"/>
	<rect x="5.5" y="-735.146" style="fill:none;stroke:#000000;stroke-miterlimit:10;" width="18" height="18"/>
	<line style="fill:none;stroke:#000000;stroke-miterlimit:10;" x1="1" y1="-741" x2="29" y2="-713"/>
</g>
<g id="Layer_1">
</g>
</svg>
