<?xml version="1.0" encoding="iso-8859-1"?>
<!-- Generator: Adobe Illustrator 16.0.0, SVG Export Plug-In . SVG Version: 6.00 Build 0)  -->
<!DOCTYPE svg PUBLIC "-//W3C//DTD SVG 1.1//EN" "http://www.w3.org/Graphics/SVG/1.1/DTD/svg11.dtd">
<svg version="1.1" xmlns="http://www.w3.org/2000/svg" xmlns:xlink="http://www.w3.org/1999/xlink" x="0px" y="0px" width="30px"
	 height="30px" viewBox="0 0 30 30" style="enable-background:new 0 0 30 30;" xml:space="preserve">
<g id="Layer_1_1_">
	<polyline style="fill:none;stroke:#000000;stroke-miterlimit:10;" points="26.619,-68.583 15.036,-57 10,-62.036 	"/>
	<polyline style="fill:none;stroke:#000000;stroke-miterlimit:10;" points="0,-276.5 13,-276.5 29,-293.292 17,-304.875 
		0.5,-288.833 0.5,-276 	"/>
	<line style="fill:none;stroke:#000000;stroke-miterlimit:10;" x1="25" y1="-296.833" x2="12" y2="-283.833"/>
	<line style="fill:none;stroke:#000000;stroke-miterlimit:10;" x1="21" y1="-300.833" x2="12" y2="-291.833"/>
	<line style="fill:none;stroke:#000000;stroke-miterlimit:10;" x1="0.391" y1="-288.942" x2="13.25" y2="-276.083"/>
	<line style="fill:none;stroke:#000000;stroke-miterlimit:10;" x1="10.998" y1="-211.331" x2="19.002" y2="-219.335"/>
	<line style="fill:none;stroke:#000000;stroke-miterlimit:10;" x1="0" y1="-119.5" x2="13" y2="-119.5"/>
	<line style="fill:none;stroke:#000000;stroke-miterlimit:10;" x1="0" y1="-273.5" x2="13" y2="-273.5"/>
	<line style="fill:none;stroke:#000000;stroke-miterlimit:10;" x1="17" y1="-308.5" x2="30" y2="-308.5"/>
	<line style="fill:none;stroke:#000000;stroke-miterlimit:10;" x1="17" y1="-232.5" x2="30" y2="-232.5"/>
	<line style="fill:none;stroke:#000000;stroke-miterlimit:10;" x1="19.002" y1="-211.333" x2="10.999" y2="-219.335"/>
	<circle style="fill:none;stroke:#000000;stroke-miterlimit:10;" cx="24" cy="-224.333" r="5"/>
	<circle style="fill:none;stroke:#000000;stroke-miterlimit:10;" cx="6" cy="-224.333" r="5"/>
	<circle style="fill:none;stroke:#000000;stroke-miterlimit:10;" cx="24" cy="-206.333" r="5"/>
	<circle style="fill:none;stroke:#000000;stroke-miterlimit:10;" cx="6" cy="-206.333" r="5"/>
	<line style="fill:none;stroke:#000000;stroke-miterlimit:10;" x1="1.333" y1="-124.666" x2="14" y2="-137.333"/>
	<circle style="fill:none;stroke:#000000;stroke-miterlimit:10;" cx="20.5" cy="-143.833" r="8.833"/>
	<line style="fill:none;stroke:#000000;stroke-miterlimit:10;" x1="17" y1="-157.5" x2="30" y2="-157.5"/>
	<circle style="fill:none;stroke:#000000;stroke-miterlimit:10;" cx="20.5" cy="-143.833" r="5"/>
	<line style="fill:none;stroke:#000000;stroke-miterlimit:10;" x1="0" y1="-76.5" x2="13" y2="-76.5"/>
	<line style="fill:none;stroke:#000000;stroke-miterlimit:10;" x1="17" y1="-1.5" x2="30" y2="-1.5"/>
	<line style="fill:none;stroke:#000000;stroke-miterlimit:10;" x1="15" y1="-43.5" x2="0" y2="-43.5"/>
	<path style="fill:none;stroke:#000000;stroke-miterlimit:10;" d="M21-71c-2.454,0-4.633,1.179-6.001,3
		c-1.367-1.822-3.546-3-5.999-3c-4.142,0-7.5,3.357-7.5,7.5c0,1.688,0.559,3.248,1.5,4.501L4-58l11,11l10-10l1-0.91
		c1.534-1.373,2.5-3.368,2.5-5.59"/>
	<line style="fill:none;stroke:#000000;stroke-miterlimit:10;" x1="0" y1="-1.5" x2="13" y2="-1.5"/>
	<line style="fill:none;stroke:#000000;stroke-miterlimit:10;" x1="17" y1="31.5" x2="30" y2="31.5"/>
	<line style="fill:none;stroke:#000000;stroke-miterlimit:10;" x1="0" y1="31.5" x2="13" y2="31.5"/>
	<line style="fill:none;stroke:#000000;stroke-miterlimit:10;" x1="1.175" y1="28.7" x2="28.175" y2="1.7"/>
	<ellipse style="fill:none;stroke:#000000;stroke-miterlimit:10;" cx="23.175" cy="1.5" rx="6" ry="0"/>
	<ellipse style="fill:none;stroke:#000000;stroke-miterlimit:10;" cx="28.5" cy="7.2" rx="0" ry="6"/>
	<line style="fill:none;stroke:#000000;stroke-miterlimit:10;" x1="5.258" y1="27.7" x2="2.216" y2="24.658"/>
	<line style="fill:none;stroke:#000000;stroke-miterlimit:10;" x1="13.175" y1="23.616" x2="6.3" y2="16.741"/>
	<line style="fill:none;stroke:#000000;stroke-miterlimit:10;" x1="25.175" y1="19.616" x2="10.3" y2="4.741"/>
	<line style="fill:none;stroke:#000000;stroke-miterlimit:10;" x1="17" y1="69.5" x2="30" y2="69.5"/>
	<line style="fill:none;stroke:#000000;stroke-miterlimit:10;" x1="0" y1="69.5" x2="13" y2="69.5"/>
	<line style="fill:none;stroke:#000000;stroke-miterlimit:10;" x1="28.333" y1="72.667" x2="2" y2="99"/>
	<line style="fill:none;stroke:#000000;stroke-miterlimit:10;" x1="1.5" y1="100" x2="1.5" y2="91"/>
	<line style="fill:none;stroke:#000000;stroke-miterlimit:10;" x1="10" y1="99.5" x2="1" y2="99.5"/>
	<line style="fill:none;stroke:#000000;stroke-miterlimit:10;" x1="28.5" y1="72" x2="28.5" y2="81"/>
	<line style="fill:none;stroke:#000000;stroke-miterlimit:10;" x1="20" y1="72.5" x2="29" y2="72.5"/>
	<circle style="fill:none;stroke:#000000;stroke-miterlimit:10;" cx="7.833" cy="78.167" r="5.5"/>
	<circle style="fill:none;stroke:#000000;stroke-miterlimit:10;" cx="22.833" cy="93.167" r="5.5"/>
	<line style="fill:none;stroke:#000000;stroke-miterlimit:10;" x1="28.666" y1="135.334" x2="2" y2="162"/>
	<line style="fill:none;stroke:#000000;stroke-miterlimit:10;" x1="1.5" y1="163" x2="1.5" y2="154"/>
	<line style="fill:none;stroke:#000000;stroke-miterlimit:10;" x1="10" y1="162.5" x2="1" y2="162.5"/>
	<rect x="15.5" y="135.5" style="fill:none;stroke:#000000;stroke-miterlimit:10;" width="13" height="13"/>
	<line style="fill:none;stroke:#000000;stroke-miterlimit:10;" x1="16.333" y1="135.667" x2="28.833" y2="148.167"/>
	<rect x="9.5" y="183.5" style="fill:none;stroke:#000000;stroke-miterlimit:10;" width="18" height="18"/>
	<circle style="fill:none;stroke:#000000;stroke-miterlimit:10;" cx="10.167" cy="201.333" r="9"/>
	<line style="fill:none;stroke:#000000;stroke-miterlimit:10;" x1="10.166" y1="201.333" x2="16.499" y2="195"/>
	<line style="fill:none;stroke:#000000;stroke-miterlimit:10;" x1="1.5" y1="251" x2="1.5" y2="279"/>
	<line style="fill:none;stroke:#000000;stroke-miterlimit:10;" x1="1" y1="278.5" x2="29" y2="278.5"/>
	<line style="fill:none;stroke:#000000;stroke-miterlimit:10;" x1="4.174" y1="275.697" x2="28.174" y2="251.697"/>
	<path style="fill:none;stroke:#000000;stroke-miterlimit:10;" d="M22.174,263.697c0,3.313-2.684,6-6,6c-3.311,0-6-2.687-6-6
		s2.689-6,6-6C19.49,257.697,22.174,260.384,22.174,263.697z"/>
	<line style="fill:none;stroke:#000000;stroke-miterlimit:10;" x1="2.25" y1="329.501" x2="28.25" y2="303.501"/>
	<line style="fill:none;stroke:#000000;stroke-miterlimit:10;" x1="28" y1="317.5" x2="22" y2="317.5"/>
	<line style="fill:none;stroke:#000000;stroke-miterlimit:10;" x1="28" y1="322.5" x2="16" y2="322.5"/>
	<line style="fill:none;stroke:#000000;stroke-miterlimit:10;" x1="28" y1="327.5" x2="11" y2="327.5"/>
	<circle style="fill:none;stroke:#000000;stroke-miterlimit:10;" cx="8.25" cy="310.5" r="5"/>
	<line style="fill:none;stroke:#000000;stroke-miterlimit:10;" x1="0" y1="376.5" x2="15" y2="376.5"/>
	<polygon style="fill:none;stroke:#000000;stroke-miterlimit:10;" points="6.406,350.331 2.154,354.583 2,354.718 15,367.664 
		28,354.664 26.267,352.858 23.702,350.295 	"/>
	<line style="fill:none;stroke:#000000;stroke-miterlimit:10;" x1="2" y1="354.5" x2="28" y2="354.5"/>
	<polyline style="fill:none;stroke:#000000;stroke-miterlimit:10;" points="7,350 11.5,354.5 15.5,350.5 19.5,354.5 	"/>
	<circle style="fill:none;stroke:#000000;stroke-miterlimit:10;" cx="24" cy="402.167" r="5"/>
	<circle style="fill:none;stroke:#000000;stroke-miterlimit:10;" cx="6" cy="420.167" r="5"/>
	<line style="fill:none;stroke:#000000;stroke-miterlimit:10;" x1="15.5" y1="405" x2="15.5" y2="418"/>
	<line style="fill:none;stroke:#000000;stroke-miterlimit:10;" x1="9" y1="411.5" x2="22" y2="411.5"/>
	<line style="fill:none;stroke:#000000;stroke-miterlimit:10;" x1="1" y1="465" x2="29" y2="437"/>
	<rect x="5.5" y="442.5" style="fill:none;stroke:#000000;stroke-miterlimit:10;" width="18" height="18"/>
	<line style="fill:none;stroke:#000000;stroke-miterlimit:10;" x1="1" y1="437" x2="29" y2="465"/>
</g>
<g id="Layer_1">
</g>
</svg>
